<svg data-v-1e5362ba="" t="1484204795585" viewBox="0 0 1024 1024" version="1.1" xmlns="http://www.w3.org/2000/svg" xmlns:xlink="http://www.w3.org/1999/xlink" width="30" height="30"><path data-v-1e5362ba="" d="M512 38.4a473.6 473.6 0 0 0-149.792 922.944 23.936 23.936 0 0 0 32.576-22.4c0-11.232-0.608-48.544-0.608-88.192-118.976 21.888-149.76-28.992-159.264-55.648a172.224 172.224 0 0 0-48.544-66.912c-16.576-8.864-40.256-30.784-0.576-31.36a94.784 94.784 0 0 1 72.832 48.544 101.216 101.216 0 0 0 137.92 39.072 99.616 99.616 0 0 1 30.176-63.328c-105.376-11.84-215.488-52.704-215.488-233.824a184.32 184.32 0 0 1 48.544-127.296 170.176 170.176 0 0 1 4.736-125.504s39.68-12.448 130.24 48.544a446.496 446.496 0 0 1 236.8 0c90.56-61.568 130.24-48.544 130.24-48.544a170.176 170.176 0 0 1 4.736 125.504 183.232 183.232 0 0 1 48.544 127.296c0 181.76-110.688 222.016-216.064 233.856a112 112 0 0 1 32 87.616c0 63.328-0.608 114.272-0.608 130.24a23.744 23.744 0 0 0 32.576 22.4A473.856 473.856 0 0 0 512 38.4z"></path></svg>