<svg data-v-1e5362ba="" t="1484204795585" viewBox="0 0 1024 1024" version="1.1" xmlns="http://www.w3.org/2000/svg" xmlns:xlink="http://www.w3.org/1999/xlink" width="30" height="30"><path data-v-1e5362ba="" d="M910.985216 209.379328 575.971328 16.106496c-34.90304-20.14208-92.024832-20.14208-126.931968 0L114.038784 209.379328C79.131648 229.516288 50.57536 278.944768 50.57536 319.227904l0 386.546688c0 40.278016 28.556288 89.70752 63.463424 109.848576L449.03936 1008.896c34.907136 20.13696 92.028928 20.13696 126.931968 0l335.003648-193.272832c34.912256-20.151296 63.46752-69.57568 63.46752-109.858816L974.442496 319.227904C974.44352 278.944768 945.887232 229.516288 910.985216 209.379328L910.985216 209.379328zM622.189568 512.50176c0 123.22304-99.970048 223.120384-223.292416 223.120384-123.317248 0-223.28832-99.897344-223.28832-223.120384l0 0L175.608832 342.203392c0-29.174784 23.667712-52.83328 52.878336-52.83328 29.20448 0 52.868096 23.648256 52.868096 52.83328L281.355264 512.49152c0 64.863232 52.62848 117.448704 117.541888 117.448704 64.91648 0 117.541888-52.586496 117.541888-117.448704L516.43904 342.203392c0-29.174784 23.677952-52.83328 52.873216-52.83328 29.19936 0 52.867072 23.648256 52.867072 52.83328L622.179328 512.50176 622.189568 512.50176zM849.409024 682.784768c0 29.179904-23.662592 52.8384-52.868096 52.8384-29.20448 0-52.877312-23.658496-52.877312-52.8384L743.663616 342.203392c0-29.174784 23.672832-52.83328 52.877312-52.83328 29.205504 0 52.868096 23.648256 52.868096 52.83328L849.409024 682.784768 849.409024 682.784768zM849.409024 682.784768"></path></svg>